<svg xmlns="http://www.w3.org/2000/svg" data-name="Layer 1" viewBox="0 0 512 512"><path fill="#18171c" d="M175,111h61a7.5,7.5,0,0,0,7.5-7.5v-41A7.5,7.5,0,0,0,236,55H175a7.5,7.5,0,0,0-7.5,7.5v41A7.5,7.5,0,0,0,175,111Zm7.5-41h46V96h-46ZM276,111h61a7.5,7.5,0,0,0,7.5-7.5v-41A7.5,7.5,0,0,0,337,55H276a7.5,7.5,0,0,0-7.5,7.5v41A7.5,7.5,0,0,0,276,111Zm7.5-41h46V96h-46ZM416.75,343.14h37.5a7.49,7.49,0,0,0,7.5-7.5V306.36a7.49,7.49,0,0,0-7.5-7.5h-37.5a7.49,7.49,0,0,0-7.5,7.5v29.28A7.49,7.49,0,0,0,416.75,343.14Zm7.5-29.28h22.5v14.28h-22.5Zm-7.5,97.28h37.5a7.49,7.49,0,0,0,7.5-7.5V374.36a7.49,7.49,0,0,0-7.5-7.5h-37.5a7.49,7.49,0,0,0-7.5,7.5v29.28A7.49,7.49,0,0,0,416.75,411.14Zm7.5-29.28h22.5v14.28h-22.5Zm-7.5-174.72h37.5a7.49,7.49,0,0,0,7.5-7.5V170.36a7.49,7.49,0,0,0-7.5-7.5h-37.5a7.49,7.49,0,0,0-7.5,7.5v29.28A7.49,7.49,0,0,0,416.75,207.14Zm7.5-29.28h22.5v14.28h-22.5Zm-7.5,301.28h37.5a7.49,7.49,0,0,0,7.5-7.5V442.36a7.49,7.49,0,0,0-7.5-7.5h-37.5a7.49,7.49,0,0,0-7.5,7.5v29.28A7.49,7.49,0,0,0,416.75,479.14Zm7.5-29.28h22.5v14.28h-22.5Zm-7.5-174.72h37.5a7.49,7.49,0,0,0,7.5-7.5V238.36a7.49,7.49,0,0,0-7.5-7.5h-37.5a7.49,7.49,0,0,0-7.5,7.5v29.28A7.49,7.49,0,0,0,416.75,275.14Zm7.5-29.28h22.5v14.28h-22.5Zm-7.5-106.72h37.5a7.49,7.49,0,0,0,7.5-7.5V102.36a7.49,7.49,0,0,0-7.5-7.5h-37.5a7.49,7.49,0,0,0-7.5,7.5v29.28A7.49,7.49,0,0,0,416.75,139.14Zm7.5-29.28h22.5v14.28h-22.5ZM57.75,207.14h37.5a7.49,7.49,0,0,0,7.5-7.5V170.36a7.49,7.49,0,0,0-7.5-7.5H57.75a7.49,7.49,0,0,0-7.5,7.5v29.28A7.49,7.49,0,0,0,57.75,207.14Zm7.5-29.28h22.5v14.28H65.25Zm-7.5-38.72h37.5a7.49,7.49,0,0,0,7.5-7.5V102.36a7.49,7.49,0,0,0-7.5-7.5H57.75a7.49,7.49,0,0,0-7.5,7.5v29.28A7.49,7.49,0,0,0,57.75,139.14Zm7.5-29.28h22.5v14.28H65.25Zm-7.5,301.28h37.5a7.49,7.49,0,0,0,7.5-7.5V374.36a7.49,7.49,0,0,0-7.5-7.5H57.75a7.49,7.49,0,0,0-7.5,7.5v29.28A7.49,7.49,0,0,0,57.75,411.14Zm7.5-29.28h22.5v14.28H65.25Zm-7.5-106.72h37.5a7.49,7.49,0,0,0,7.5-7.5V238.36a7.49,7.49,0,0,0-7.5-7.5H57.75a7.49,7.49,0,0,0-7.5,7.5v29.28A7.49,7.49,0,0,0,57.75,275.14Zm7.5-29.28h22.5v14.28H65.25Zm-7.5,233.28h37.5a7.49,7.49,0,0,0,7.5-7.5V442.36a7.49,7.49,0,0,0-7.5-7.5H57.75a7.49,7.49,0,0,0-7.5,7.5v29.28A7.49,7.49,0,0,0,57.75,479.14Zm7.5-29.28h22.5v14.28H65.25Zm-7.5-106.72h37.5a7.49,7.49,0,0,0,7.5-7.5V306.36a7.49,7.49,0,0,0-7.5-7.5H57.75a7.49,7.49,0,0,0-7.5,7.5v29.28A7.49,7.49,0,0,0,57.75,343.14Zm7.5-29.28h22.5v14.28H65.25ZM276,181h61a7.5,7.5,0,0,0,7.5-7.5v-41A7.5,7.5,0,0,0,337,125H276a7.5,7.5,0,0,0-7.5,7.5v41A7.5,7.5,0,0,0,276,181Zm7.5-41h46v26h-46ZM175,181h61a7.5,7.5,0,0,0,7.5-7.5v-41A7.5,7.5,0,0,0,236,125H175a7.5,7.5,0,0,0-7.5,7.5v41A7.5,7.5,0,0,0,175,181Zm7.5-41h46v26h-46ZM276,249h61a7.5,7.5,0,0,0,7.5-7.5v-41A7.5,7.5,0,0,0,337,193H276a7.5,7.5,0,0,0-7.5,7.5v41A7.5,7.5,0,0,0,276,249Zm7.5-41h46v26h-46ZM175,249h61a7.5,7.5,0,0,0,7.5-7.5v-41A7.5,7.5,0,0,0,236,193H175a7.5,7.5,0,0,0-7.5,7.5v41A7.5,7.5,0,0,0,175,249Zm7.5-41h46v26h-46ZM276,317h61a7.5,7.5,0,0,0,7.5-7.5v-41A7.5,7.5,0,0,0,337,261H276a7.5,7.5,0,0,0-7.5,7.5v41A7.5,7.5,0,0,0,276,317Zm7.5-41h46v26h-46ZM175,317h61a7.5,7.5,0,0,0,7.5-7.5v-41A7.5,7.5,0,0,0,236,261H175a7.5,7.5,0,0,0-7.5,7.5v41A7.5,7.5,0,0,0,175,317Zm7.5-41h46v26h-46ZM175,385h61a7.5,7.5,0,0,0,7.5-7.5v-41A7.5,7.5,0,0,0,236,329H175a7.5,7.5,0,0,0-7.5,7.5v41A7.5,7.5,0,0,0,175,385Zm7.5-41h46v26h-46ZM276,385h61a7.5,7.5,0,0,0,7.5-7.5v-41A7.5,7.5,0,0,0,337,329H276a7.5,7.5,0,0,0-7.5,7.5v41A7.5,7.5,0,0,0,276,385Zm7.5-41h46v26h-46Zm221,153H501V40.5a7.5,7.5,0,0,0-7.5-7.5H385a4.19,4.19,0,0,0,0-.5V7.5A7.5,7.5,0,0,0,377.5,0h-243A7.5,7.5,0,0,0,127,7.5v25a4.19,4.19,0,0,0,0,.5H18.5A7.5,7.5,0,0,0,11,40.5V497H7.5a7.5,7.5,0,0,0,0,15h497a7.5,7.5,0,0,0,0-15ZM127,497H26V73H127Zm0-439H26V48H127Zm15-43H370V25H142Zm86.5,482h-46V411h46Zm101,0h-46V411h46ZM370,40.5V497H344.5V403.5A7.5,7.5,0,0,0,337,396H276a7.5,7.5,0,0,0-7.5,7.5V497h-25V403.5A7.5,7.5,0,0,0,236,396H175a7.5,7.5,0,0,0-7.5,7.5V497H142V40.5a4.19,4.19,0,0,0,0-.5H370A4.19,4.19,0,0,0,370,40.5ZM486,497H385V73H486Zm0-439H385V48H486Z"/></svg>