<svg xmlns="http://www.w3.org/2000/svg" data-name="Layer 1" viewBox="0 0 512 512"><path d="M395,39a7.5,7.5,0,1,0,7.5,7.5A7.5,7.5,0,0,0,395,39Zm85.5,99A13.51507,13.51507,0,0,0,467,151.5v62A13.51507,13.51507,0,0,0,480.5,227h18A13.51507,13.51507,0,0,0,512,213.5v-62A13.51507,13.51507,0,0,0,498.5,138H497V122.5A14.51669,14.51669,0,0,0,482.5,108h-35V37.5A37.54227,37.54227,0,0,0,410,0H102A37.54227,37.54227,0,0,0,64.5,37.5V108h-35A14.51669,14.51669,0,0,0,15,122.5V138H13.5A13.51507,13.51507,0,0,0,0,151.5v62A13.51507,13.51507,0,0,0,13.5,227h18A13.51507,13.51507,0,0,0,45,213.5v-62A13.51507,13.51507,0,0,0,31.5,138H30V123H64.5V406.5a37.553,37.553,0,0,0,31,36.92444V489.5a22.39313,22.39313,0,0,0,1.29,7.5H7.5a7.5,7.5,0,0,0,0,15h497a7.5,7.5,0,0,0,0-15H415.21a22.39313,22.39313,0,0,0,1.29-7.5V443.42444A37.553,37.553,0,0,0,447.5,406.5V123H482v15ZM30,212H15V153H30ZM79.5,93h169V253H79.5Zm82,396.5A7.5082,7.5082,0,0,1,154,497H118a7.5082,7.5082,0,0,1-7.5-7.5V444h51Zm13.71,7.5a22.39313,22.39313,0,0,0,1.29-7.5V444h159v45.5a22.39313,22.39313,0,0,0,1.29,7.5Zm226.29-7.5A7.5082,7.5082,0,0,1,394,497H358a7.5082,7.5082,0,0,1-7.5-7.5V444h51Zm31-83A22.52554,22.52554,0,0,1,410,429H102a22.52554,22.52554,0,0,1-22.5-22.5V320.47961A37.30373,37.30373,0,0,0,102,328H410a37.30373,37.30373,0,0,0,22.5-7.52039Zm0-116A22.52554,22.52554,0,0,1,410,313H102a22.52554,22.52554,0,0,1-22.5-22.5V268h353Zm0-37.5h-169V93h169Zm0-175H79.5V37.5A22.52554,22.52554,0,0,1,102,15H410a22.52554,22.52554,0,0,1,22.5,22.5ZM497,153v59H482V153ZM309,343H203a22.52554,22.52554,0,0,0-22.5,22.5v26A22.52554,22.52554,0,0,0,203,414H309a22.52554,22.52554,0,0,0,22.5-22.5v-26A22.52554,22.52554,0,0,0,309,343Zm7.5,48.5A7.5082,7.5082,0,0,1,309,399H203a7.5082,7.5082,0,0,1-7.5-7.5v-26A7.5082,7.5082,0,0,1,203,358H309a7.5082,7.5082,0,0,1,7.5,7.5ZM130,343a35.5,35.5,0,1,0,35.5,35.5A35.54,35.54,0,0,0,130,343Zm0,56a20.5,20.5,0,1,1,20.5-20.5A20.52325,20.52325,0,0,1,130,399Zm252-56a35.5,35.5,0,1,0,35.5,35.5A35.54,35.54,0,0,0,382,343Zm0,56a20.5,20.5,0,1,1,20.5-20.5A20.52325,20.52325,0,0,1,382,399ZM116.47314,39a7.5,7.5,0,1,0,7.5,7.5A7.5,7.5,0,0,0,116.47314,39ZM354,39H158a7.5,7.5,0,0,0,0,15H354a7.5,7.5,0,0,0,0-15Z"/></svg>